<svg width="15" height="14" viewBox="0 0 15 14" fill="none" xmlns="http://www.w3.org/2000/svg">
<path d="M10.8301 0.5C12.854 0.500042 14.4999 2.14877 14.5 4.19238C14.5 5.0305 14.3668 5.80414 14.1348 6.52148L14.6104 6.6748L14.1338 6.52148L14.1328 6.52441C13.5761 8.28601 12.4343 9.71052 11.1953 10.7754C10.109 11.709 8.97019 12.3471 8.13965 12.6836L7.80371 12.8096L7.79883 12.8105C7.74149 12.8308 7.633 12.8496 7.5 12.8496C7.43346 12.8496 7.37314 12.8451 7.32227 12.8379L7.20117 12.8105L7.19629 12.8096L6.86035 12.6836C6.02981 12.3471 4.89096 11.709 3.80469 10.7754C2.64301 9.77699 1.56627 8.46263 0.977539 6.85059L0.867188 6.52441L0.865234 6.52148L0.783203 6.24902C0.602225 5.60915 0.5 4.92557 0.5 4.19238C0.500063 2.14877 2.14597 0.500042 4.16992 0.5C5.36241 0.5 6.43203 1.07952 7.09961 1.97168L7.5 2.50684L7.90039 1.97168C8.56797 1.07952 9.63759 0.5 10.8301 0.5Z" stroke="white"/>
</svg>
