<svg width="44" height="52" viewBox="0 0 44 52" fill="none" xmlns="http://www.w3.org/2000/svg">
<path d="M37.5567 37.7088L25.8885 49.4245C24.8572 50.4589 23.4591 51.04 22.0014 51.04C20.5436 51.04 19.1455 50.4589 18.1143 49.4245L6.44326 37.7088C3.36662 34.6194 1.27143 30.6835 0.422651 26.3986C-0.426132 22.1136 0.00960742 17.6722 1.67477 13.636C3.33993 9.5997 6.15972 6.14985 9.77758 3.72268C13.3954 1.2955 17.6489 0 22 0C26.3511 0 30.6046 1.2955 34.2224 3.72268C37.8403 6.14985 40.6601 9.5997 42.3252 13.636C43.9904 17.6722 44.4261 22.1136 43.5773 26.3986C42.7286 30.6835 40.6334 34.6194 37.5567 37.7088Z" fill="#1C2A3A"/>
</svg>
