<svg width="96" height="108" viewBox="0 0 96 108" fill="none" xmlns="http://www.w3.org/2000/svg">
<path d="M53.8207 53.2392V59.7363H41.7522V27.6923H47.058V20.9286H35.0174V39.7277H21.7547V27.6923H28.2626V20.9286H21.2691C19.6071 20.9307 18.0137 21.5916 16.8385 22.7663C15.6633 23.941 15.0021 25.5337 15 27.195V40.2409C15.0021 41.9022 15.6633 43.4949 16.8385 44.6696C18.0137 45.8443 19.6071 46.5052 21.2691 46.5073H35.0174V60.2456C35.0226 61.9041 35.6846 63.4931 36.8587 64.6651C38.0327 65.8372 39.6232 66.4969 41.2825 66.5H54.3023C55.9643 66.4979 57.5577 65.837 58.7329 64.6623C59.9081 63.4876 60.5693 61.895 60.5714 60.2337V53.2392H53.8207Z" fill="white"/>
<path d="M74.7305 20.4997H60.985V6.76856C60.9829 5.10668 60.3217 3.51347 59.1463 2.33834C57.971 1.16322 56.3775 0.502106 54.7154 0.5H41.6944C40.0329 0.503159 38.4404 1.16473 37.266 2.33975C36.0915 3.51476 35.4308 5.10737 35.4287 6.76856V13.7575H42.1641V7.2382H54.2218V39.3054H48.9314V46.0714H60.985V27.2498H74.2488V39.3054H67.7363V46.0714H74.7305C76.3927 46.0693 77.9861 45.4082 79.1615 44.2331C80.3368 43.058 80.998 41.4647 81.0001 39.8029V26.7682C80.998 25.1064 80.3368 23.5132 79.1615 22.338C77.9861 21.1629 76.3927 20.5018 74.7305 20.4997Z" fill="white"/>
<path d="M12.78 88.56V102.5H10.96V96.18H3.86V102.5H2.04V88.56H3.86V94.68H10.96V88.56H12.78ZM25.8877 96.6C25.8877 96.9467 25.8677 97.3133 25.8277 97.7H17.0677C17.1343 98.78 17.501 99.6267 18.1677 100.24C18.8477 100.84 19.6677 101.14 20.6277 101.14C21.4143 101.14 22.0677 100.96 22.5877 100.6C23.121 100.227 23.4943 99.7333 23.7077 99.12H25.6677C25.3743 100.173 24.7877 101.033 23.9077 101.7C23.0277 102.353 21.9343 102.68 20.6277 102.68C19.5877 102.68 18.6543 102.447 17.8277 101.98C17.0143 101.513 16.3743 100.853 15.9077 100C15.441 99.1333 15.2077 98.1333 15.2077 97C15.2077 95.8667 15.4343 94.8733 15.8877 94.02C16.341 93.1667 16.9743 92.5133 17.7877 92.06C18.6143 91.5933 19.561 91.36 20.6277 91.36C21.6677 91.36 22.5877 91.5867 23.3877 92.04C24.1877 92.4933 24.801 93.12 25.2277 93.92C25.6677 94.7067 25.8877 95.6 25.8877 96.6ZM24.0077 96.22C24.0077 95.5267 23.8543 94.9333 23.5477 94.44C23.241 93.9333 22.821 93.5533 22.2877 93.3C21.7677 93.0333 21.1877 92.9 20.5477 92.9C19.6277 92.9 18.841 93.1933 18.1877 93.78C17.5477 94.3667 17.181 95.18 17.0877 96.22H24.0077ZM27.61 96.98C27.61 95.86 27.8367 94.88 28.29 94.04C28.7433 93.1867 29.3633 92.5267 30.15 92.06C30.95 91.5933 31.8367 91.36 32.81 91.36C33.77 91.36 34.6033 91.5667 35.31 91.98C36.0167 92.3933 36.5433 92.9133 36.89 93.54V91.54H38.73V102.5H36.89V100.46C36.53 101.1 35.99 101.633 35.27 102.06C34.5633 102.473 33.7367 102.68 32.79 102.68C31.8167 102.68 30.9367 102.44 30.15 101.96C29.3633 101.48 28.7433 100.807 28.29 99.94C27.8367 99.0733 27.61 98.0867 27.61 96.98ZM36.89 97C36.89 96.1733 36.7233 95.4533 36.39 94.84C36.0567 94.2267 35.6033 93.76 35.03 93.44C34.47 93.1067 33.85 92.94 33.17 92.94C32.49 92.94 31.87 93.1 31.31 93.42C30.75 93.74 30.3033 94.2067 29.97 94.82C29.6367 95.4333 29.47 96.1533 29.47 96.98C29.47 97.82 29.6367 98.5533 29.97 99.18C30.3033 99.7933 30.75 100.267 31.31 100.6C31.87 100.92 32.49 101.08 33.17 101.08C33.85 101.08 34.47 100.92 35.03 100.6C35.6033 100.267 36.0567 99.7933 36.39 99.18C36.7233 98.5533 36.89 97.8267 36.89 97ZM43.6256 87.7V102.5H41.8056V87.7H43.6256ZM48.9475 93.04V99.5C48.9475 100.033 49.0608 100.413 49.2875 100.64C49.5142 100.853 49.9075 100.96 50.4675 100.96H51.8075V102.5H50.1675C49.1542 102.5 48.3942 102.267 47.8875 101.8C47.3808 101.333 47.1275 100.567 47.1275 99.5V93.04H45.7075V91.54H47.1275V88.78H48.9475V91.54H51.8075V93.04H48.9475ZM59.4527 91.34C60.2793 91.34 61.026 91.52 61.6927 91.88C62.3593 92.2267 62.8793 92.7533 63.2527 93.46C63.6393 94.1667 63.8327 95.0267 63.8327 96.04V102.5H62.0327V96.3C62.0327 95.2067 61.7593 94.3733 61.2127 93.8C60.666 93.2133 59.9193 92.92 58.9727 92.92C58.0127 92.92 57.246 93.22 56.6727 93.82C56.1127 94.42 55.8327 95.2933 55.8327 96.44V102.5H54.0127V87.7H55.8327V93.1C56.1927 92.54 56.686 92.1067 57.3127 91.8C57.9527 91.4933 58.666 91.34 59.4527 91.34Z" fill="#CBCBCB"/>
<path d="M76.1256 92.64C76.1256 93.8 75.7256 94.7667 74.9256 95.54C74.139 96.3 72.9323 96.68 71.3056 96.68H68.6256V102.5H66.8056V88.56H71.3056C72.879 88.56 74.0723 88.94 74.8856 89.7C75.7123 90.46 76.1256 91.44 76.1256 92.64ZM71.3056 95.18C72.319 95.18 73.0656 94.96 73.5456 94.52C74.0256 94.08 74.2656 93.4533 74.2656 92.64C74.2656 90.92 73.279 90.06 71.3056 90.06H68.6256V95.18H71.3056ZM77.7077 96.98C77.7077 95.86 77.9343 94.88 78.3877 94.04C78.841 93.1867 79.461 92.5267 80.2477 92.06C81.0477 91.5933 81.9343 91.36 82.9077 91.36C83.8677 91.36 84.701 91.5667 85.4077 91.98C86.1143 92.3933 86.641 92.9133 86.9877 93.54V91.54H88.8277V102.5H86.9877V100.46C86.6277 101.1 86.0877 101.633 85.3677 102.06C84.661 102.473 83.8343 102.68 82.8877 102.68C81.9143 102.68 81.0343 102.44 80.2477 101.96C79.461 101.48 78.841 100.807 78.3877 99.94C77.9343 99.0733 77.7077 98.0867 77.7077 96.98ZM86.9877 97C86.9877 96.1733 86.821 95.4533 86.4877 94.84C86.1543 94.2267 85.701 93.76 85.1277 93.44C84.5677 93.1067 83.9477 92.94 83.2677 92.94C82.5877 92.94 81.9677 93.1 81.4077 93.42C80.8477 93.74 80.401 94.2067 80.0677 94.82C79.7343 95.4333 79.5677 96.1533 79.5677 96.98C79.5677 97.82 79.7343 98.5533 80.0677 99.18C80.401 99.7933 80.8477 100.267 81.4077 100.6C81.9677 100.92 82.5877 101.08 83.2677 101.08C83.9477 101.08 84.5677 100.92 85.1277 100.6C85.701 100.267 86.1543 99.7933 86.4877 99.18C86.821 98.5533 86.9877 97.8267 86.9877 97ZM93.7233 87.7V102.5H91.9033V87.7H93.7233Z" fill="white"/>
</svg>
