<svg width="16" height="17" viewBox="0 0 16 17" fill="none" xmlns="http://www.w3.org/2000/svg">
<path fill-rule="evenodd" clip-rule="evenodd" d="M7.91342 0.586426C7.43082 0.611116 6.95207 0.989077 6.58221 1.71919L5.17802 4.52757C4.98881 4.91596 4.48091 5.29439 4.05268 5.36411L1.51319 5.78237C-0.110091 6.06122 -0.488524 7.23636 0.676653 8.40154L2.65845 10.3833C2.98709 10.712 3.17631 11.3593 3.08668 11.8373L2.51903 14.2872C2.07088 16.2192 3.1066 16.9661 4.80955 15.9603L7.1897 14.5461C7.3881 14.4261 7.64848 14.3618 7.91342 14.353V0.586426Z" fill="#FEB052"/>
<path fill-rule="evenodd" clip-rule="evenodd" d="M7.91357 14.3544C8.22048 14.3442 8.5335 14.4086 8.76333 14.5475L11.1435 15.9617C12.8464 16.9775 13.8821 16.2206 13.434 14.2886L12.8663 11.8387C12.7568 11.3707 12.946 10.7233 13.2747 10.3947L15.2565 8.41291C16.4216 7.23777 16.0432 6.06264 14.4199 5.79375L11.8804 5.37548C11.4522 5.29581 10.9443 4.92734 10.7551 4.53894L9.3509 1.73057C8.95393 0.941796 8.43154 0.561348 7.91357 0.587841V14.3544Z" fill="#FFD7A8"/>
</svg>
