<svg width="11" height="10" viewBox="0 0 11 10" fill="none" xmlns="http://www.w3.org/2000/svg">
<path d="M6.10932 0.722833L6.99654 2.49727C7.1161 2.74267 7.43701 2.97549 7.70758 3.02583L9.31212 3.2901C10.3378 3.46 10.5769 4.20249 9.84067 4.94498L8.5885 6.19716C8.38085 6.4048 8.2613 6.81381 8.33052 7.10955L8.68918 8.65746C8.97233 9.87817 8.31793 10.3564 7.24194 9.71457L5.73808 8.82106C5.46751 8.65746 5.01446 8.65746 4.74389 8.82106L3.24002 9.71457C2.16403 10.3501 1.50963 9.87817 1.79279 8.65746L2.15145 7.10955C2.20808 6.80751 2.08853 6.39851 1.88088 6.19087L0.628706 4.93869C-0.107496 4.20249 0.131613 3.46 1.15726 3.28381L2.76181 3.01953C3.03238 2.97549 3.35328 2.73638 3.47284 2.49098L4.36006 0.716541C4.84457 -0.239893 5.62481 -0.239893 6.10932 0.722833Z" fill="#FEB052"/>
</svg>
